<!-- Generated by IcoMoon.io -->
<svg version="1.1" xmlns="http://www.w3.org/2000/svg" width="32" height="32" viewBox="0 0 32 32">
<title>custom-solutions</title>
<path fill="#2a2a2a" d="M20.984 11.991c0-0.070 0-0.14 0-0.21-0.009-0.318-0.050-0.622-0.121-0.914l0.006 0.030-0.165-0.085-0.849-0.42 0.36-1.074c-0.402-0.628-0.92-1.147-1.529-1.537l-0.020-0.012-1.074 0.36-0.225-0.455-0.28-0.555c-0.166-0.040-0.37-0.076-0.577-0.098l-0.022-0.002c-0.16 0-0.32-0.025-0.5-0.025-0.388 0-0.765 0.044-1.128 0.126l0.034-0.006-0.5 0.999-1.074-0.36c-0.628 0.402-1.147 0.92-1.537 1.529l-0.012 0.020 0.36 1.074-0.839 0.425-0.165 0.080c-0.069 0.264-0.117 0.571-0.134 0.887l-0.001 0.012c0 0.070 0 0.14 0 0.21 0 0.001 0 0.002 0 0.002 0 0.387 0.044 0.764 0.126 1.126l-0.007-0.034 0.999 0.5-0.36 1.074c0.402 0.628 0.92 1.147 1.529 1.537l0.020 0.012 0.829-0.28 0.245-0.080 0.5 0.999c0.329 0.076 0.706 0.12 1.094 0.12s0.765-0.044 1.128-0.126l-0.034 0.006 0.5-0.999 1.074 0.36c0.19-0.119 0.353-0.236 0.509-0.362l-0.009 0.007c0.262-0.211 0.494-0.442 0.698-0.696l0.007-0.009c0.122-0.147 0.239-0.31 0.344-0.481l0.010-0.018-0.36-1.074 0.999-0.5c0.087-0.323 0.141-0.695 0.15-1.079l0-0.005zM18.486 12.14c-0.021 0.461-0.169 0.883-0.41 1.237l0.005-0.008c-0.454 0.678-1.217 1.119-2.083 1.119-0.004 0-0.007 0-0.011-0h0.001c-0.045 0.004-0.097 0.006-0.15 0.006s-0.105-0.002-0.157-0.006l0.007 0c-1.201-0.148-2.132-1.13-2.198-2.342l-0-0.006c0-0.050 0-0.1 0-0.15 0.001-0.301 0.054-0.589 0.15-0.857l-0.006 0.018c0.355-0.975 1.274-1.659 2.353-1.659 0 0 0 0 0 0h-0c0 0 0 0 0 0 1.079 0 1.998 0.684 2.347 1.641l0.006 0.017c0.092 0.245 0.145 0.528 0.145 0.824 0 0.005-0 0.011-0 0.016v-0.001c0.004 0.023 0.006 0.049 0.006 0.075s-0.002 0.052-0.006 0.078l0-0.003z"></path>
<path  d="M17.986 0c-1.099 0.007-1.986 0.899-1.986 1.998 0 0.783 0.45 1.461 1.106 1.788l0.012 0.005-0.63 3.227c0.232 0.022 0.44 0.055 0.643 0.101l-0.033-0.006 0.28 0.555 0.729-3.672c1.078-0.033 1.939-0.915 1.939-1.998 0-1.104-0.895-1.999-1.999-1.999-0.021 0-0.042 0-0.063 0.001l0.003-0zM18.306 2.943c-0.094 0.032-0.203 0.051-0.315 0.051-0.44 0-0.813-0.284-0.947-0.679l-0.002-0.007c-0.032-0.092-0.051-0.198-0.055-0.308l-0-0.002c0-0.001 0-0.002 0-0.002 0-0.552 0.447-0.999 0.999-0.999s0.999 0.447 0.999 0.999c0 0.437-0.281 0.809-0.672 0.945l-0.007 0.002z"></path>
<path  d="M3.997 9.772c-0.116-1.004-0.961-1.776-1.986-1.776-1.104 0-1.998 0.895-1.998 1.998s0.895 1.998 1.998 1.998c0.823 0 1.53-0.498 1.836-1.208l0.005-0.013 7.154 0.999c0.012-0.32 0.053-0.623 0.121-0.916l-0.006 0.032 0.165-0.080zM1.998 10.991c-0.001 0-0.001 0-0.002 0-0.552 0-0.999-0.447-0.999-0.999s0.447-0.999 0.999-0.999c0.417 0 0.774 0.255 0.924 0.618l0.002 0.007c0.047 0.11 0.075 0.238 0.075 0.373 0 0.001 0 0.001 0 0.002v-0c0 0.552-0.447 0.999-0.999 0.999v0z"></path>
<path  d="M14.903 16.862l-0.5-0.999-0.245 0.080-4.022 12.036h-0.145c-0.002 0-0.005 0-0.008 0-1.104 0-1.998 0.895-1.998 1.998s0.895 1.998 1.998 1.998c1.104 0 1.998-0.895 1.998-1.998 0-0.698-0.357-1.312-0.899-1.669l-0.007-0.005 3.817-11.436zM9.992 30.976c-0.030 0.003-0.065 0.005-0.1 0.005-0.555 0-1.004-0.45-1.004-1.004 0-0.519 0.394-0.947 0.9-0.999l0.004-0c0.030-0.004 0.065-0.006 0.1-0.006s0.070 0.002 0.104 0.006l-0.004-0c0.552 0 0.999 0.447 0.999 0.999s-0.447 0.999-0.999 0.999v0z"></path>
<path  d="M29.977 23.981c-0.369 0.001-0.714 0.105-1.008 0.285l0.009-0.005-9.113-9.108c-0.212 0.261-0.443 0.492-0.696 0.698l-0.009 0.007 9.108 9.123c-0.168 0.287-0.268 0.631-0.268 0.999 0 1.104 0.895 1.998 1.998 1.998s1.998-0.895 1.998-1.998c0-1.104-0.895-1.998-1.998-1.998-0.008 0-0.016 0-0.023 0h0.001zM29.977 26.979c-0.552 0-0.999-0.447-0.999-0.999v0c-0-0.002-0-0.005-0-0.007 0-0.088 0.013-0.174 0.037-0.254l-0.002 0.006c0.094-0.347 0.362-0.615 0.702-0.708l0.007-0.002c0.074-0.022 0.159-0.035 0.248-0.035 0.002 0 0.005 0 0.007 0h-0c0.552 0 0.999 0.447 0.999 0.999s-0.447 0.999-0.999 0.999v0z"></path>
<path  d="M29.977 7.994c-0.004-0-0.008-0-0.012-0-1.026 0-1.872 0.774-1.985 1.769l-0.001 0.009-7.269 1.039 0.165 0.085c0.063 0.263 0.103 0.567 0.11 0.879l0 0.005 7.154-0.999c0.314 0.717 1.018 1.209 1.836 1.209 1.104 0 1.998-0.895 1.998-1.998s-0.893-1.997-1.996-1.998h-0zM29.977 10.991c-0.552 0-0.999-0.447-0.999-0.999v0c0-0.001 0-0.001 0-0.002 0-0.135 0.028-0.263 0.077-0.379l-0.002 0.006c0.152-0.369 0.509-0.624 0.926-0.624 0.552 0 0.999 0.447 0.999 0.999s-0.447 0.999-0.999 0.999c-0.001 0-0.001 0-0.002 0h0z"></path>
</svg>
