<!-- Generated by IcoMoon.io -->
<svg version="1.1" xmlns="http://www.w3.org/2000/svg" width="32" height="32" viewBox="0 0 32 32">
<title>launch-tools</title>
<path fill="#333" d="M15.845 6.125c-0.001 0-0.003 0-0.005 0-1.082 0-1.96 0.878-1.96 1.96s0.878 1.96 1.96 1.96c1.082 0 1.96-0.878 1.96-1.96v0c0-0.002 0-0.003 0-0.005 0-1.080-0.875-1.955-1.955-1.955 0 0 0 0 0 0v0zM15.845 9.065c-0.552 0-1-0.448-1-1s0.448-1 1-1c0.552 0 1 0.448 1 1v0c0 0.552-0.448 1-1 1v0z"></path>
<path fill="#333" d="M18.815 11.625c0.259-0.799 0.497-1.783 0.667-2.79l0.018-0.13c0.065-0.38 0.12-0.755 0.155-1.105 0.058-0.441 0.092-0.952 0.095-1.472v-0.003c0.004-0.060 0.006-0.13 0.006-0.2s-0.002-0.14-0.006-0.21l0 0.010c-0.028-0.277-0.075-0.529-0.143-0.772l0.008 0.032c-0.74-2.7-3.77-4.735-3.77-4.735s-3.030 2.035-3.76 4.735c-0.065 0.221-0.115 0.482-0.139 0.749l-0.001 0.016c-0.004 0.060-0.006 0.13-0.006 0.2s0.002 0.14 0.006 0.21l-0-0.010c-0.002 0.076-0.003 0.165-0.003 0.254 0 0.421 0.021 0.837 0.062 1.248l-0.004-0.052c0.040 0.35 0.095 0.725 0.155 1.105 0.199 1.148 0.44 2.131 0.741 3.088l-0.046-0.168c-1.68 0.64-1.735 3.885-1.735 4.295h1c0-0.655 0.19-2.925 1.070-3.36v0c0.145 0.385 0.3 0.76 0.46 1.1 0.045 0.1 0.095 0.195 0.14 0.295h1.57v1.96h1v-1.955h1.545c0.050-0.1 0.1-0.195 0.14-0.295 0.165-0.34 0.315-0.715 0.46-1.1 0.805 0.395 1.075 2.35 1.075 3.355h1c-0.020-0.41-0.075-3.67-1.76-4.295zM15.845 1.48c0.945 0.75 1.737 1.644 2.355 2.656l0.025 0.044c-0.7-0.316-1.517-0.5-2.377-0.5s-1.678 0.184-2.415 0.515l0.037-0.015c0.635-1.060 1.427-1.955 2.354-2.684l0.021-0.016zM18.585 8.305c-0.211 1.339-0.503 2.518-0.886 3.656l0.046-0.156c-0.15 0.43-0.305 0.835-0.465 1.2h-0.945v-1h-1v1h-0.925c-0.165-0.365-0.315-0.77-0.46-1.2-0.338-0.973-0.634-2.143-0.832-3.346l-0.018-0.129c-0.113-0.648-0.184-1.402-0.195-2.169l-0-0.011c-0.003-0.046-0.004-0.099-0.004-0.152s0.002-0.107 0.004-0.16l-0 0.007c0-0.085 0-0.17 0.035-0.245 0.803-0.574 1.805-0.918 2.888-0.918s2.084 0.344 2.903 0.928l-0.015-0.010c0 0.080 0 0.165 0.035 0.255 0.003 0.044 0.004 0.096 0.004 0.147s-0.002 0.103-0.005 0.155l0-0.007c-0.002 0.762-0.062 1.508-0.176 2.237l0.011-0.082z"></path>
<path  d="M29.55 16.92c0.001 0 0.003 0 0.005 0 0.53 0 0.96 0.43 0.96 0.96s-0.43 0.96-0.96 0.96c-0.53 0-0.96-0.43-0.96-0.96 0-0.002 0-0.003 0-0.005v0c0.003-0.526 0.429-0.952 0.955-0.955h0zM29.55 15.92c-0.003-0-0.006-0-0.010-0-1.082 0-1.96 0.878-1.96 1.96s0.878 1.96 1.96 1.96c1.082 0 1.96-0.878 1.96-1.96 0-0.002 0-0.003 0-0.005v0c0 0 0 0 0 0 0-1.080-0.875-1.955-1.955-1.955-0.002 0-0.003 0-0.005 0h0z"></path>
<path  d="M14.665 13.96h-0.88c-0.045-0.1-0.095-0.195-0.14-0.295 0.153 1.234 0.24 2.662 0.24 4.111 0 0.035-0 0.070-0 0.105v-0.005c0 0.6 0 1.17-0.040 1.715-1.442 0.358-2.688 1.055-3.694 2.004l0.004-0.004c-0.316 0.292-0.603 0.606-0.862 0.942l-0.013 0.018c-0.545 0.689-0.99 1.49-1.293 2.358l-0.017 0.057-1.43-1.415v-7.695c0.844-0.229 1.455-0.988 1.455-1.89 0-1.080-0.875-1.955-1.955-1.955s-1.955 0.875-1.955 1.955c0 0.902 0.611 1.661 1.441 1.887l0.014 0.003v8.095l2.115 2.115c-0.078 0.378-0.131 0.821-0.149 1.274l-0 0.016c-0.432-0.111-0.929-0.175-1.44-0.175-0.021 0-0.042 0-0.063 0l0.003-0c-2.794 0.023-5.157 1.843-5.992 4.36l-0.013 0.045h1.035c0.803-2.018 2.737-3.42 4.999-3.425h0.001c0.009-0 0.019-0 0.029-0 0.525 0 1.031 0.079 1.508 0.225l-0.036-0.010c0.395 0.114 0.736 0.255 1.058 0.429l-0.028-0.014c1.139 0.608 2.016 1.58 2.487 2.759l0.013 0.036h1.045c-0.593-1.781-1.898-3.186-3.568-3.899l-0.042-0.016c0.001-0.26 0.015-0.515 0.043-0.767l-0.003 0.032c0-0.205 0.045-0.41 0.085-0.61s0.080-0.38 0.13-0.565c0.18-0.683 0.437-1.282 0.768-1.831l-0.018 0.031c0.953-1.598 2.449-2.788 4.228-3.326l0.052-0.014c0.28-0.087 0.618-0.162 0.964-0.211l0.036-0.004c0.025-0.33 0.040-0.665 0.055-1 0-0.5 0.030-1 0.030-1.535 0-0.001 0-0.003 0-0.004 0-1.376-0.074-2.734-0.22-4.071l0.015 0.166zM5.070 13.96c0-0.552 0.448-1 1-1s1 0.448 1 1c0 0.552-0.448 1-1 1v0c-0.552 0-1-0.448-1-1v0z"></path>
<path  d="M25.635 23.25c-0.887 0.006-1.73 0.19-2.497 0.516l0.043-0.016c-0.075-0.145-0.155-0.285-0.24-0.425l-0.040-0.075 3.225-3.23v-8.080c0.847-0.229 1.46-0.99 1.46-1.895 0-1.082-0.878-1.96-1.96-1.96s-1.96 0.878-1.96 1.96c0 0.905 0.613 1.666 1.446 1.892l0.014 0.003v7.695l-2.825 2.82c-0.247-0.312-0.505-0.59-0.785-0.845l-0.005-0.005c-0.398-0.375-0.838-0.713-1.31-1.005l-0.035-0.020c-0.674-0.431-1.456-0.775-2.289-0.988l-0.056-0.012c0-0.545-0.040-1.115-0.040-1.715-0-0.029-0-0.064-0-0.099 0-1.449 0.087-2.877 0.257-4.28l-0.017 0.169c-0.040 0.1-0.090 0.195-0.14 0.295h-0.855c-0.128 1.137-0.2 2.456-0.2 3.791 0 0.043 0 0.087 0 0.13l-0-0.007c0 0.5 0 1 0.025 1.535 0 0.33 0.030 0.665 0.055 1 0.382 0.052 0.72 0.128 1.047 0.227l-0.047-0.012c0.719 0.213 1.346 0.505 1.919 0.873l-0.029-0.018c0.606 0.391 1.128 0.844 1.577 1.361l0.008 0.009c0.084 0.092 0.166 0.191 0.243 0.295l0.007 0.010c0.105 0.125 0.2 0.265 0.295 0.4l0.115 0.17 0.15 0.24c0.045 0.075 0.085 0.15 0.125 0.225l-0.205 0.13c-0.305 0.202-0.572 0.416-0.817 0.652l0.002-0.002c-0.813-1.053-2.076-1.724-3.495-1.724-2.433 0-4.405 1.972-4.405 4.405 0 0.003 0 0.006 0 0.009v-0h1c-0-0.005-0-0.010-0-0.015 0-1.889 1.531-3.42 3.42-3.42 1.166 0 2.195 0.583 2.813 1.474l0.007 0.011c0.024 0.024 0.044 0.052 0.059 0.083l0.001 0.002c0.176 0.277 0.314 0.6 0.396 0.943l0.004 0.022c0.177-0.27 0.358-0.505 0.555-0.726l-0.005 0.006 0.16-0.165c0.27-0.273 0.568-0.516 0.889-0.727l0.021-0.013c0.252-0.169 0.54-0.322 0.843-0.444l0.032-0.011c0.603-0.262 1.306-0.417 2.044-0.42h0.001c2.967 0.017 5.365 2.426 5.365 5.395 0 0.702-0.134 1.372-0.378 1.987l0.013-0.037h1.030c0.208-0.587 0.33-1.263 0.335-1.968v-0.002c0-0.001 0-0.003 0-0.005 0-3.516-2.849-6.367-6.365-6.37h-0zM24.635 10.035c-0-0.007-0-0.016-0-0.025 0-0.552 0.448-1 1-1s1 0.448 1 1c0 0.552-0.448 1-1 1h-0c-0.532-0.011-0.961-0.435-0.98-0.963l-0-0.002z"></path>
</svg>
