<!-- Generated by IcoMoon.io -->
<svg version="1.1" xmlns="http://www.w3.org/2000/svg" enable-background="new 0 0 512 512" width="32" height="32" viewBox="0 0 32 32">
<title>API</title>
<path d="M11.165 7.36h-1.805l-0.36 1.085h-0.855l1.755-4.655h0.73l1.76 4.655h-0.845zM9.59 6.71h1.35l-0.675-1.93z"></path>
<path d="M13.725 6.72v1.725h-0.81v-4.655h1.78c0.029-0.002 0.063-0.003 0.097-0.003 0.435 0 0.834 0.154 1.146 0.41l-0.003-0.003c0.28 0.253 0.456 0.617 0.456 1.023 0 0.018-0 0.037-0.001 0.055l0-0.003c0.002 0.024 0.003 0.053 0.003 0.081 0 0.392-0.173 0.743-0.446 0.982l-0.002 0.001c-0.315 0.242-0.714 0.388-1.148 0.388-0.040 0-0.079-0.001-0.118-0.004l0.005 0zM13.725 6.065h0.97c0.021 0.002 0.046 0.003 0.072 0.003 0.223 0 0.428-0.076 0.59-0.204l-0.002 0.002c0.14-0.138 0.227-0.33 0.227-0.541 0-0.017-0.001-0.034-0.002-0.051l0 0.002c0.001-0.012 0.001-0.026 0.001-0.040 0-0.219-0.088-0.417-0.231-0.56l0 0c-0.155-0.143-0.362-0.231-0.59-0.231-0.014 0-0.028 0-0.042 0.001l0.002-0h-1z"></path>
<path d="M17.95 8.445h-0.805v-4.655h0.805z"></path>
<path d="M0 20h2v2h-2v-2z"></path>
<path d="M0 16h2v2h-2v-2z"></path>
<path d="M0 12h2v2h-2v-2z"></path>
<path d="M0 8h2v2h-2v-2z"></path>
<path  d="M0 4h2v2h-2v-2z"></path>
<path fill="#333" d="M22 0h-16c-1.105 0-2 0.895-2 2v0 20c0 1.105 0.895 2 2 2v0h4.32c-0.050-0.33-0.090-0.665-0.115-1h-4.205c-0.552 0-1-0.448-1-1v0-20c0-0.552 0.448-1 1-1v0h16c0.552 0 1 0.448 1 1v0 8.155c0.376 0.024 0.72 0.065 1.057 0.123l-0.057-0.008v-8.27c0-1.105-0.895-2-2-2v0z"></path>
<path fill="#333" d="M32.050 22.060c-0.001-0.773-0.088-1.525-0.253-2.248l0.013 0.068-2-1 0.69-2.14c-0.8-1.249-1.831-2.28-3.040-3.056l-0.040-0.024-2.135 0.71-1-2c-0.654-0.153-1.406-0.24-2.178-0.24s-1.523 0.087-2.245 0.253l0.067-0.013-1 2-2.135-0.71c-1.251 0.8-2.283 1.83-3.061 3.040l-0.024 0.040 0.715 2.135-2 1c-0.153 0.654-0.24 1.406-0.24 2.178s0.087 1.523 0.253 2.245l-0.013-0.067 2 1-0.715 2.13c0.802 1.251 1.834 2.283 3.045 3.061l0.040 0.024 2.135-0.71 1 2c0.654 0.153 1.406 0.24 2.178 0.24s1.523-0.087 2.245-0.253l-0.067 0.013 1-2 2.135 0.71c1.248-0.797 2.279-1.825 3.056-3.031l0.024-0.039-0.71-2.13 2-1c0.158-0.654 0.253-1.407 0.26-2.18l0-0.005zM22.105 27.030c-2.743-0.003-4.965-2.227-4.965-4.97 0-2.745 2.225-4.97 4.97-4.97s4.97 2.225 4.97 4.97v0c0 2.745-2.225 4.97-4.97 4.97-0.002 0-0.004 0-0.005 0h0z"></path>
</svg>
