<!-- Generated by IcoMoon.io -->
<svg version="1.1" xmlns="http://www.w3.org/2000/svg" width="32" height="32" viewBox="0 0 32 32">
<title>consulting</title>
<path  d="M23 20v4c0 0.552-0.448 1-1 1v0h-14.415l-2.585 2.585v-2.585h-3c-0.552 0-1-0.448-1-1v0-12c0-0.552 0.448-1 1-1v0h4v-1h-4c-1.105 0-2 0.895-2 2v0 12c0 1.105 0.895 2 2 2v0h2v4l4-4h14c1.105 0 2-0.895 2-2v0-4z"></path>
<path fill="#333" d="M30 3c0.552 0 1 0.448 1 1v0 12c0 0.552-0.448 1-1 1v0h-3v2.585l-2.295-2.29-0.29-0.295h-14.415c-0.552 0-1-0.448-1-1v0-12c0-0.552 0.448-1 1-1v0h20zM30 2h-20c-1.105 0-2 0.895-2 2v0 12c0 1.105 0.895 2 2 2v0h14l4 4v-4h2c1.105 0 2-0.895 2-2v0-12c0-1.105-0.895-2-2-2v0z"></path>
</svg>
