<!-- Generated by IcoMoon.io -->
<svg version="1.1" xmlns="http://www.w3.org/2000/svg" width="32" height="32" viewBox="0 0 32 32">
<title>course-conversion</title>
<path fill="#f07c2e" d="M17.035 27.5h-12.535v-15.785l-1-0.83v17.615h14.735zM13.76 3.5l1.2 1h12.54v9.115l1 0.835v-10.95z"></path>
<path fill="#333" d="M8 1.3l6.44 5.365-6.44 5.365-6.44-5.365 6.44-5.365zM8 0l-8 6.665 8 6.67 8-6.67-8-6.665z"></path>
<path fill="#333" d="M32 18.665l-8-6.665-8 6.665v6.67l8 6.665 8-6.665v-6.67zM24.5 13.72l5.94 4.945-3.22 2.685-2.72-2.265zM23.5 13.72v5.365l-2.72 2.265-3.22-2.685zM17 19.5l3 2.5-3 2.5zM23.5 30.28l-5.94-4.945 3.22-2.685 2.72 2.265zM23.96 24l-2.4-2 2.4-2h0.080l2.4 2-2.4 2zM24.5 30.28v-5.365l2.72-2.265 3.22 2.685zM31 24.5l-3-2.5 3-2.5z"></path>
</svg>
