<!-- Generated by IcoMoon.io -->
<svg version="1.1" xmlns="http://www.w3.org/2000/svg" width="32" height="32" viewBox="0 0 32 32">
<title>course-developement</title>
<path  d="M28.5 15.5v4.5h-1v-3.5h-23v3.5h-1v-4.5h12v-3.5h1v3.5h12z"></path>
<path fill="#333" d="M30.5 21c0.276 0 0.5 0.224 0.5 0.5v0 5c0 0.276-0.224 0.5-0.5 0.5v0h-9c-0.276 0-0.5-0.224-0.5-0.5v0-5c0-0.276 0.224-0.5 0.5-0.5v0h9zM30.5 20h-9c-0.828 0-1.5 0.672-1.5 1.5v0 5c0 0.828 0.672 1.5 1.5 1.5v0h9c0.828 0 1.5-0.672 1.5-1.5v0-5c0-0.828-0.672-1.5-1.5-1.5v0z"></path>
<path fill="#333" d="M10.5 21c0.276 0 0.5 0.224 0.5 0.5v0 5c0 0.276-0.224 0.5-0.5 0.5v0h-9c-0.276 0-0.5-0.224-0.5-0.5v0-5c0-0.276 0.224-0.5 0.5-0.5v0h9zM10.5 20h-9c-0.828 0-1.5 0.672-1.5 1.5v0 5c0 0.828 0.672 1.5 1.5 1.5v0h9c0.828 0 1.5-0.672 1.5-1.5v0-5c0-0.828-0.672-1.5-1.5-1.5v0z"></path>
<path fill="#333" d="M22.5 5c0.276 0 0.5 0.224 0.5 0.5v0 5c0 0.276-0.224 0.5-0.5 0.5v0h-13c-0.276 0-0.5-0.224-0.5-0.5v0-5c0-0.276 0.224-0.5 0.5-0.5v0h13zM22.5 4h-13c-0.828 0-1.5 0.672-1.5 1.5v0 5c0 0.828 0.672 1.5 1.5 1.5v0h13c0.828 0 1.5-0.672 1.5-1.5v0-5c0-0.828-0.672-1.5-1.5-1.5v0z"></path>
</svg>
