<!-- Generated by IcoMoon.io -->
<svg version="1.1" xmlns="http://www.w3.org/2000/svg" width="32" height="32" viewBox="0 0 32 32">
<title>Digital-tools</title>
<path fill="#f07c2e" d="M12.205 8.5h-8.27c-0.23-0.869-1.010-1.5-1.937-1.5-1.105 0-2 0.895-2 2s0.895 2 2 2c0.927 0 1.706-0.631 1.933-1.486l0.003-0.014h4.855l-3.29 3.295v8.27c-0.869 0.23-1.5 1.010-1.5 1.936 0 1.105 0.895 2 2 2s2-0.895 2-2c0-0.927-0.631-1.706-1.486-1.933l-0.014-0.003v-7.86l3.71-3.705h1.585l0.825 0.825c0.184-0.295 0.394-0.549 0.633-0.773l0.002-0.002zM2.865 9.5c-0.176 0.3-0.498 0.498-0.865 0.498-0.552 0-1-0.448-1-1s0.448-1 1-1c0.552 0 1 0.448 1 1 0 0.001 0 0.001 0 0.002v-0c-0 0.184-0.050 0.357-0.138 0.505l0.003-0.005zM7 23c0 0 0 0.001 0 0.001 0 0.552-0.448 1-1 1s-1-0.448-1-1c0-0.552 0.448-1 1-1 0.184 0 0.357 0.050 0.505 0.137l-0.005-0.003c0.301 0.176 0.5 0.497 0.5 0.865v0z"></path>
<path fill="#f07c2e" d="M22.5 1.065c-0.15-0.041-0.322-0.065-0.5-0.065s-0.35 0.024-0.514 0.068l0.014-0.003c-0.867 0.232-1.494 1.010-1.494 1.935s0.628 1.703 1.48 1.932l0.014 0.003v3.86l-1.905 1.905c0.156 0.31 0.276 0.669 0.342 1.047l0.003 0.023 2.56-2.565v-4.27c0.867-0.232 1.494-1.010 1.494-1.935s-0.628-1.703-1.48-1.932l-0.014-0.003zM22.5 3.865c-0.143 0.084-0.316 0.134-0.5 0.134-0.552 0-1-0.448-1-1s0.448-1 1-1c0.552 0 1 0.448 1 1 0 0 0 0.001 0 0.001v-0c-0 0.368-0.199 0.689-0.495 0.862l-0.005 0.003z"></path>
<path fill="#f07c2e" d="M30 27c-0.926 0.001-1.705 0.631-1.932 1.486l-0.003 0.014h-7.86l-2.705-2.715c-0.224 0.255-0.511 0.45-0.836 0.561l-0.014 0.004 3.15 3.15h8.265c0.23 0.869 1.010 1.5 1.936 1.5 1.105 0 2-0.895 2-2s-0.895-2-2-2c-0.001 0-0.001 0-0.002 0h0zM30 30c-0.552 0-1-0.448-1-1s0.448-1 1-1c0.552 0 1 0.448 1 1v0c0 0.552-0.448 1-1 1v0z"></path>
<path fill="#333" d="M20 12.46c-0.002 1.471-0.797 2.756-1.981 3.45l-0.019 0.010v8.54c0 0.001 0 0.001 0 0.002 0 0.508-0.19 0.972-0.502 1.325l0.002-0.002c-0.224 0.255-0.511 0.45-0.836 0.561l-0.014 0.004c-0.191 0.069-0.41 0.109-0.64 0.11h-0c-1.105 0-2-0.895-2-2v0-8.54c-1.203-0.704-1.998-1.989-2-3.46v-0c0-0.004-0-0.009-0-0.013 0-0.788 0.231-1.521 0.629-2.137l-0.009 0.015c0.184-0.295 0.394-0.549 0.633-0.773l0.002-0.002c0.216-0.204 0.457-0.386 0.716-0.54l0.019-0.010v3.46h4v-3.46c0.689 0.401 1.235 0.981 1.585 1.677l0.010 0.023c0.156 0.31 0.276 0.669 0.342 1.047l0.003 0.023c0.038 0.206 0.060 0.443 0.060 0.685 0 0.002 0 0.004 0 0.006v-0z"></path>
</svg>
