<!-- Generated by IcoMoon.io -->
<svg version="1.1" xmlns="http://www.w3.org/2000/svg" width="32" height="32" viewBox="0 0 32 32">
<title>Gamification</title>
<path fill="#f07c2e" d="M25.335 24.8c0 0.737-0.598 1.335-1.335 1.335s-1.335-0.598-1.335-1.335c0-0.737 0.598-1.335 1.335-1.335s1.335 0.598 1.335 1.335z"></path>
<path fill="#f07c2e" d="M25.335 19.465c0 0.737-0.598 1.335-1.335 1.335s-1.335-0.598-1.335-1.335c0-0.737 0.598-1.335 1.335-1.335s1.335 0.598 1.335 1.335z"></path>
<path fill="#f07c2e" d="M22.67 22.13c0 0.737-0.598 1.335-1.335 1.335s-1.335-0.598-1.335-1.335c0-0.737 0.598-1.335 1.335-1.335s1.335 0.598 1.335 1.335z"></path>
<path fill="#f07c2e" d="M28 22.13c0 0.737-0.598 1.335-1.335 1.335s-1.335-0.598-1.335-1.335c0-0.737 0.598-1.335 1.335-1.335s1.335 0.598 1.335 1.335z"></path>
<path fill="#f07c2e" d="M12 21.13v2h-3v3h-2v-3h-3v-2h3v-3h2v3h3z"></path>
<path fill="#333" d="M30 14.050h-13v-12.050h-2v12.050h-13c-1.105 0-2 0.895-2 2v0 12.165c0 1.105 0.895 2 2 2v0h28c1.105 0 2-0.895 2-2v0-12.165c0-1.105-0.895-2-2-2v0zM31 28.215c0 0.552-0.448 1-1 1v0h-28c-0.552 0-1-0.448-1-1v0-12.165c0-0.552 0.448-1 1-1v0h28c0.552 0 1 0.448 1 1v0z"></path>
</svg>
