<!-- Generated by IcoMoon.io -->
<svg version="1.1" xmlns="http://www.w3.org/2000/svg" width="32" height="32" viewBox="0 0 32 32">
<title>offline-remote</title>
<path  d="M23.89 29.19l-1.555-1.94-0.675-0.85-4.79-5.98-8.98-11.23c-0.092-0.122-0.237-0.2-0.4-0.2-0.276 0-0.5 0.224-0.5 0.5 0 0.124 0.045 0.238 0.12 0.325l-0.001-0.001 2.185 2.73c-1.754 1.157-2.895 3.119-2.895 5.347 0 0.003 0 0.006 0 0.009v-0c-0.002 0.041-0.004 0.089-0.004 0.137s0.001 0.096 0.004 0.144l-0-0.007c-0.477-0.174-1.027-0.275-1.601-0.275-2.651 0-4.8 2.149-4.8 4.8s2.149 4.8 4.8 4.8c0 0 0.001 0 0.001 0h16c0.066 0.004 0.143 0.006 0.22 0.006s0.154-0.002 0.231-0.006l-0.011 0 1.87 2.335c0.092 0.102 0.224 0.165 0.372 0.165 0.006 0 0.013-0 0.019-0l-0.001 0c0.118-0.001 0.226-0.042 0.311-0.111l-0.001 0.001c0.115-0.092 0.187-0.233 0.187-0.39 0-0.117-0.041-0.225-0.108-0.311l0.001 0.001zM4.8 26.5c-2.094-0.006-3.79-1.705-3.79-3.8 0-2.099 1.701-3.8 3.8-3.8 0.452 0 0.885 0.079 1.287 0.223l-0.027-0.008 1.47 0.53-0.135-1.555c0-0.065 0-0.125 0-0.19 0-0.004 0-0.008 0-0.012 0-1.907 0.987-3.583 2.479-4.545l0.021-0.013 6.24 7.8 0.635 0.785 3.68 4.585z"></path>
<path fill="#333" d="M32 15.5v1h-1.5v1.5h-1v-1.5h-1.5v-1h1.5v-1.5h1v1.5h1.5z"></path>
<path fill="#333" d="M15 7v2h-2v-2h2zM16 6h-4v4h4v-4z"></path>
<path fill="#333" d="M24 2c-1.102 0.003-1.994 0.897-1.994 2 0 0.925 0.628 1.703 1.48 1.932l0.014 0.003v7.86l-3 3v-6.86c0.869-0.23 1.5-1.010 1.5-1.937 0-1.105-0.895-2-2-2s-2 0.895-2 2c0 0.927 0.631 1.707 1.486 1.933l0.014 0.003v7.86l-2.625 2.625 0.625 0.785 2.85-2.85 0.145-0.15 4-4v-8.27c0.867-0.232 1.494-1.010 1.494-1.935 0-1.101-0.889-1.994-1.989-2h-0.001zM20 9c-0.552 0-1-0.448-1-1s0.448-1 1-1c0.552 0 1 0.448 1 1v0c0 0.552-0.448 1-1 1v0zM24 5c-0.552 0-1-0.448-1-1s0.448-1 1-1c0.552 0 1 0.448 1 1v0c0 0.552-0.448 1-1 1v0z"></path>
<path fill="#333" d="M26 23c0.552 0 1 0.448 1 1s-0.448 1-1 1c-0.552 0-1-0.448-1-1v0c0-0.552 0.448-1 1-1v0zM26 22c-1.105 0-2 0.895-2 2s0.895 2 2 2c1.105 0 2-0.895 2-2v0c0-1.105-0.895-2-2-2v0z"></path>
</svg>
