<!-- Generated by IcoMoon.io -->
<svg version="1.1" xmlns="http://www.w3.org/2000/svg" width="32" height="32" viewBox="0 0 32 32">
<title>polls</title>
<path fill="#333" d="M30 1c0.552 0 1 0.448 1 1v0 20c0 0.552-0.448 1-1 1v0h-3v6.585l-6.585-6.585h-18.415c-0.552 0-1-0.448-1-1v0-20c0-0.552 0.448-1 1-1v0h28zM30 0h-28c-1.105 0-2 0.895-2 2v0 20c0 1.105 0.895 2 2 2v0h18l8 8v-8h2c1.105 0 2-0.895 2-2v0-20c0-1.105-0.895-2-2-2v0z"></path>
<path fill="#f07c2e" d="M22 4h4v16h-4v-16z"></path>
<path fill="#f07c2e" d="M14 12h4v8h-4v-8z"></path>
<path fill="#f07c2e" d="M6 8h4v12h-4v-12z"></path>
</svg>
