<!-- Generated by IcoMoon.io -->
<svg version="1.1" xmlns="http://www.w3.org/2000/svg" width="32" height="32" viewBox="0 0 32 32">
<title>reporting</title>
<path fill="#f07c2e" d="M1.143 21.714v9.143h2.286v-9.143zM2.286 25.143c0.006-0 0.014-0 0.021-0 0.203 0 0.394 0.058 0.555 0.157l-0.005-0.003 0.269 0.16 0.16 0.269c0.090 0.152 0.143 0.336 0.143 0.531 0 0.010-0 0.020-0 0.030l0-0.001c0 0.631-0.512 1.143-1.143 1.143s-1.143-0.512-1.143-1.143c0-0.631 0.512-1.143 1.143-1.143v0z"></path>
<path fill="#f07c2e" d="M19.429 14.857v13.714h2.286v-13.714zM20.571 20.571c0.006-0 0.014-0 0.021-0 0.203 0 0.394 0.058 0.555 0.157l-0.005-0.003 0.269 0.16 0.16 0.269c0.090 0.152 0.143 0.336 0.143 0.531 0 0.010-0 0.020-0 0.030l0-0.001c0 0.631-0.512 1.143-1.143 1.143s-1.143-0.512-1.143-1.143v0c-0.004-0.035-0.007-0.076-0.007-0.117s0.002-0.082 0.007-0.122l-0 0.005 0.069-0.291 0.194-0.229c0.21-0.239 0.517-0.389 0.859-0.389 0.007 0 0.015 0 0.022 0l-0.001-0z"></path>
<path fill="#f07c2e" d="M10.286 8v18.286h2.286v-18.286zM11.429 16c0.631 0 1.143 0.512 1.143 1.143v0c0.004 0.035 0.007 0.076 0.007 0.117s-0.002 0.082-0.007 0.122l0-0.005-0.069 0.291-0.194 0.229c-0.21 0.239-0.517 0.389-0.859 0.389-0.007 0-0.015-0-0.022-0l0.001 0c-0.006 0-0.014 0-0.021 0-0.203 0-0.394-0.058-0.555-0.157l0.005 0.003-0.269-0.16-0.149-0.257c-0.097-0.157-0.155-0.347-0.155-0.55 0-0.007 0-0.015 0-0.022l-0 0.001c0-0.631 0.512-1.143 1.143-1.143v0z"></path>
<path fill="#f07c2e" d="M28.571 1.143v22.857h2.286v-22.857zM29.714 11.429c0.631 0 1.143 0.512 1.143 1.143s-0.512 1.143-1.143 1.143v0c-0.006 0-0.014 0-0.021 0-0.203 0-0.394-0.057-0.555-0.157l0.005 0.003-0.269-0.16-0.149-0.257c-0.097-0.157-0.154-0.347-0.154-0.55 0-0.007 0-0.015 0-0.022l-0 0.001c0-0.631 0.512-1.143 1.143-1.143v0z"></path>
<path fill="#333" d="M30.857 10.6c-0.328-0.193-0.722-0.306-1.143-0.306-1.26 0-2.281 1.019-2.286 2.277v0c0.001 0.422 0.12 0.817 0.326 1.153l-0.006-0.010-6.034 6.034c-0.326-0.2-0.72-0.319-1.143-0.32h-0c-0.683 0.002-1.295 0.304-1.712 0.78l-0.002 0.003-5.189-2.589c0.029-0.135 0.046-0.289 0.046-0.448 0-0.011-0-0.023-0-0.034l0 0.002c-0.003-0.838-0.457-1.57-1.132-1.966l-0.011-0.006c-0.327-0.195-0.722-0.311-1.143-0.311s-0.816 0.115-1.153 0.316l0.010-0.006c-0.686 0.401-1.14 1.133-1.143 1.971v0c0.001 0.422 0.12 0.817 0.325 1.153l-0.005-0.010-6.034 6.034c-0.326-0.2-0.72-0.319-1.143-0.32h-0c-1.262 0-2.286 1.023-2.286 2.286s1.023 2.286 2.286 2.286c1.262 0 2.286-1.023 2.286-2.286v0c-0.001-0.422-0.12-0.817-0.325-1.153l0.005 0.010 6.034-6.034c0.327 0.195 0.722 0.311 1.143 0.311s0.816-0.115 1.153-0.316l-0.010 0.006c0.223-0.125 0.412-0.281 0.569-0.466l0.002-0.003 5.189 2.589c-0.029 0.135-0.046 0.29-0.046 0.448 0 0.013 0 0.026 0 0.039l-0-0.002c0 1.262 1.023 2.286 2.286 2.286s2.286-1.023 2.286-2.286v0c-0.001-0.422-0.12-0.817-0.326-1.153l0.006 0.010 6.034-6.034c0.326 0.2 0.72 0.319 1.143 0.32h0c1.256-0.008 2.272-1.028 2.272-2.286 0-0.836-0.449-1.567-1.119-1.966l-0.011-0.006zM2.286 27.429c-0.631 0-1.143-0.512-1.143-1.143s0.512-1.143 1.143-1.143v0c0.006-0 0.014-0 0.021-0 0.203 0 0.394 0.058 0.555 0.157l-0.005-0.003 0.269 0.16 0.16 0.269c0.090 0.152 0.143 0.336 0.143 0.531 0 0.010-0 0.020-0 0.030l0-0.001c0 0.631-0.512 1.143-1.143 1.143v0zM12.571 17.377l-0.069 0.291-0.194 0.229c-0.21 0.239-0.517 0.389-0.859 0.389-0.007 0-0.015-0-0.022-0l0.001 0c-0.006 0-0.014 0-0.021 0-0.203 0-0.394-0.058-0.555-0.157l0.005 0.003-0.269-0.16-0.149-0.257c-0.097-0.157-0.155-0.347-0.155-0.55 0-0.007 0-0.015 0-0.022l-0 0.001c0-0.631 0.512-1.143 1.143-1.143s1.143 0.512 1.143 1.143v0c0.004 0.035 0.007 0.076 0.007 0.117s-0.002 0.082-0.007 0.122l0-0.005zM20.571 22.857c-0.631 0-1.143-0.512-1.143-1.143v0c-0.004-0.035-0.007-0.076-0.007-0.117s0.002-0.082 0.007-0.122l-0 0.005 0.069-0.291 0.194-0.229c0.21-0.239 0.517-0.389 0.859-0.389 0.007 0 0.015 0 0.022 0l-0.001-0c0.006-0 0.014-0 0.021-0 0.203 0 0.394 0.058 0.555 0.157l-0.005-0.003 0.269 0.16 0.16 0.269c0.090 0.152 0.143 0.336 0.143 0.531 0 0.010-0 0.020-0 0.030l0-0.001c0 0.631-0.512 1.143-1.143 1.143v0zM29.714 13.714c-0.006 0-0.014 0-0.021 0-0.203 0-0.394-0.057-0.555-0.157l0.005 0.003-0.269-0.16-0.149-0.257c-0.097-0.157-0.154-0.347-0.154-0.55 0-0.007 0-0.015 0-0.022l-0 0.001c0-0.631 0.512-1.143 1.143-1.143s1.143 0.512 1.143 1.143c0 0.631-0.512 1.143-1.143 1.143v0z"></path>
</svg>
