<!-- Generated by IcoMoon.io -->
<svg version="1.1" xmlns="http://www.w3.org/2000/svg" width="32" height="32" viewBox="0 0 32 32">
<title>Scorm-Hosting</title>
<path fill="#f07c2e" d="M32 15.5c-0.268-8.45-7.050-15.232-15.475-15.499l-0.025-0.001h-1c-8.45 0.268-15.232 7.050-15.499 15.475l-0.001 0.025v1c0.161 5.234 2.822 9.814 6.823 12.606l0.052 0.034 0.145 0.105c0.245 0.165 0.5 0.32 0.745 0.47v0l0.5 0.29c0.245 0.135 0.5 0.26 0.745 0.38l0.065 0.035 0.185 0.085c0.235 0.105 0.47 0.21 0.71 0.305l0.055 0.025c0.39 0.16 0.795 0.3 1.2 0.425h0.060c1.248 0.412 2.689 0.678 4.183 0.739l0.032 0.001h1c1.497-0.047 2.918-0.292 4.263-0.71l-0.113 0.030h0.060c0.405-0.125 0.81-0.265 1.2-0.425v0l0.055-0.025c0.24-0.095 0.5-0.2 0.71-0.305l0.185-0.085 0.065-0.035c0.255-0.12 0.5-0.245 0.745-0.38l0.5-0.29c0.255-0.15 0.5-0.305 0.745-0.47v0l0.145-0.105c4.094-2.825 6.783-7.433 6.939-12.676l0.001-0.024v-1zM19.5 1.415c0.205 0.045 0.405 0.095 0.61 0.155h0.050q0.27 0.075 0.54 0.165c0.42 0.14 0.84 0.3 1.25 0.5 0.18 0.075 0.36 0.16 0.535 0.245s0.315 0.155 0.47 0.235l0.085 0.045c0.14 0.070 0.275 0.145 0.41 0.23 0.049 0.023 0.090 0.046 0.129 0.072l-0.004-0.002c0.12 0.065 0.24 0.14 0.355 0.215 0.37 0.225 0.725 0.465 1.070 0.725-0.836 0.633-1.784 1.2-2.791 1.657l-0.094 0.038c-0.668-1.703-1.653-3.151-2.891-4.336l-0.004-0.004c0.11 0.017 0.205 0.038 0.297 0.064l-0.017-0.004zM16.5 1.045c1.765 0.285 3.465 2.12 4.695 5.030-1.389 0.536-2.995 0.87-4.672 0.924l-0.023 0.001zM15.5 1.045v5.955c-1.699-0.051-3.306-0.382-4.796-0.949l0.101 0.034c1.23-2.92 2.93-4.755 4.695-5.040zM7.115 3.915c0.31-0.23 0.625-0.45 0.955-0.65 0.115-0.075 0.235-0.145 0.355-0.215 0.034-0.017 0.075-0.034 0.118-0.048l0.007-0.002c0.13-0.080 0.26-0.15 0.39-0.22 0.662-0.359 1.443-0.698 2.253-0.969l0.107-0.031q0.27-0.090 0.54-0.165h0.050c0.205-0.060 0.405-0.11 0.61-0.155 0.073-0.022 0.166-0.043 0.261-0.058l0.014-0.002c-1.242 1.189-2.227 2.637-2.867 4.259l-0.028 0.081c-1.099-0.508-2.045-1.088-2.913-1.765l0.033 0.025c0.034-0.030 0.072-0.058 0.111-0.083l0.004-0.002zM12.57 30.6l-0.355-0.1c-0.31-0.080-0.625-0.17-0.93-0.27-0.215-0.070-0.425-0.16-0.635-0.24-0.644-0.24-1.171-0.477-1.681-0.744l0.081 0.038-0.050-0.020c-0.749-0.401-1.387-0.809-1.991-1.259l0.041 0.029-0.050-0.035c0.834-0.632 1.78-1.196 2.787-1.652l0.093-0.038c0.401 0.963 0.84 1.785 1.346 2.559l-0.036-0.059c0.459 0.699 0.977 1.305 1.563 1.838l0.008 0.007zM15.5 30.955c-1.77-0.29-3.465-2.105-4.695-5.030 1.389-0.534 2.994-0.868 4.671-0.924l0.024-0.001zM16.5 30.955v-5.955c1.699 0.052 3.305 0.381 4.797 0.944l-0.102-0.034c-1.23 2.94-2.925 4.755-4.695 5.045zM24.955 28.035c-0.565 0.423-1.204 0.831-1.874 1.19l-0.081 0.040-0.060 0.030c-0.426 0.228-0.948 0.465-1.486 0.672l-0.099 0.033c-0.215 0.080-0.425 0.17-0.64 0.24-0.305 0.1-0.62 0.19-0.93 0.27l-0.355 0.090-0.19 0.035c1.236-1.187 2.215-2.632 2.852-4.249l0.028-0.081c1.1 0.497 2.046 1.063 2.918 1.722l-0.038-0.027zM25.75 16c0 0.001 0 0.002 0 0.003 0 0.175-0.011 0.348-0.032 0.517l0.002-0.020h5.28c-0.149 4.287-2.074 8.097-5.059 10.736l-0.016 0.014-0.125 0.105c-0.96-0.758-2.050-1.427-3.215-1.959l-0.1-0.041c0.215-0.6 0.415-1.23 0.59-1.885-0.031 0.002-0.068 0.004-0.105 0.004s-0.074-0.001-0.11-0.004l0.005 0h-0.84c-0.14 0.5-0.295 1-0.47 1.5-1.497-0.567-3.227-0.918-5.032-0.97l-0.023-0v-0.5h-1v0.5c-1.831 0.062-3.56 0.424-5.164 1.037l0.109-0.037c-0.175-0.5-0.33-1-0.47-1.5h-1.045c0.175 0.65 0.37 1.275 0.585 1.87-1.265 0.573-2.355 1.242-3.349 2.026l0.034-0.026-0.125-0.105c-3.004-2.657-4.931-6.472-5.074-10.74l-0.001-0.025h5.25v-1h-5.25c0.15-4.288 2.077-8.098 5.064-10.736l0.016-0.014 0.12-0.1c0.96 0.761 2.050 1.429 3.216 1.96l0.099 0.040c-0.215 0.595-0.41 1.22-0.585 1.87h1.040c0.14-0.5 0.3-1 0.475-1.5 1.497 0.575 3.227 0.93 5.033 0.98l0.022 0v0.5h1v-0.5c1.831-0.057 3.56-0.419 5.162-1.036l-0.107 0.036c0.175 0.5 0.335 1 0.5 1.5h0.835c0.031-0.002 0.068-0.004 0.105-0.004s0.074 0.001 0.11 0.004l-0.005-0c-0.175-0.655-0.375-1.285-0.59-1.885 1.265-0.568 2.355-1.237 3.347-2.025l-0.032 0.025 0.125 0.105c2.998 2.663 4.917 6.485 5.049 10.757l0.001 0.023h-5.28c0.019 0.149 0.030 0.322 0.030 0.497 0 0.001 0 0.002 0 0.003v-0z"></path>
<path fill="#333" d="M24.75 16c0.001 0.026 0.001 0.057 0.001 0.087 0 0.74-0.286 1.413-0.753 1.914l0.002-0.002c0.463 0.499 0.747 1.17 0.747 1.907 0 0.033-0.001 0.065-0.002 0.097l0-0.005c0 1.4-0.83 2.5-1.885 2.5h-15.61v-1h15.615c0.42 0 0.885-0.615 0.885-1.5s-0.465-1.5-0.885-1.5h-15.615v-1h15.615c0.42 0 0.885-0.615 0.885-1.5s-0.465-1.5-0.885-1.5h-15.615v-1h15.615c0.42 0 0.885-0.615 0.885-1.5s-0.465-1.5-0.885-1.5h-15.615v-1h15.615c1.055 0 1.885 1.1 1.885 2.5 0.001 0.026 0.001 0.057 0.001 0.087 0 0.74-0.286 1.413-0.753 1.914l0.002-0.002c0.466 0.5 0.751 1.173 0.751 1.913 0 0.031-0 0.061-0.001 0.092l0-0.004z"></path>
<path fill="#333" d="M23.365 20c0 0.276-0.224 0.5-0.5 0.5v0h-15.615v-1h15.615c0.276 0 0.5 0.224 0.5 0.5v0z"></path>
<path fill="#333" d="M23.365 16c0 0.276-0.224 0.5-0.5 0.5v0h-15.615v-1h15.615c0.276 0 0.5 0.224 0.5 0.5v0z"></path>
<path fill="#333" d="M23.365 12c0 0.276-0.224 0.5-0.5 0.5v0h-15.615v-1h15.615c0.276 0 0.5 0.224 0.5 0.5v0z"></path>
</svg>
